<?xml version="1.0" standalone="no"?><!DOCTYPE svg PUBLIC "-//W3C//DTD SVG 1.1//EN" "http://www.w3.org/Graphics/SVG/1.1/DTD/svg11.dtd"><svg t="1736760401197" class="icon" viewBox="0 0 1024 1024" version="1.1" xmlns="http://www.w3.org/2000/svg" p-id="17769" xmlns:xlink="http://www.w3.org/1999/xlink" width="200" height="200"><path d="M853.333333 42.666667H170.666667C110.933333 42.666667 64 89.6 64 149.333333v725.333334C64 934.4 110.933333 981.333333 170.666667 981.333333h682.666666c59.733333 0 106.666667-46.933333 106.666667-106.666666v-725.333334C960 89.6 913.066667 42.666667 853.333333 42.666667z m-362.666666 699.733333c0 17.066667-12.8 34.133333-34.133334 34.133333s-29.866667-17.066667-29.866666-34.133333v-93.866667H320v93.866667c0 17.066667-12.8 34.133333-34.133333 34.133333s-29.866667-17.066667-29.866667-34.133333v-256c0-17.066667 12.8-34.133333 34.133333-34.133333s34.133333 12.8 34.133334 34.133333v93.866667H426.666667v-93.866667c0-17.066667 12.8-34.133333 34.133333-34.133333s34.133333 12.8 34.133333 34.133333v256z m243.2 29.866667h-149.333334c-12.8 0-25.6-8.533333-29.866666-17.066667-4.266667-12.8-4.266667-25.6 4.266666-34.133333l102.4-119.466667h-76.8c-17.066667 0-34.133333-12.8-34.133333-34.133333s12.8-34.133333 34.133333-34.133334h149.333334c12.8 0 25.6 8.533333 29.866666 17.066667 4.266667 12.8 4.266667 25.6-4.266666 34.133333l-102.4 119.466667h76.8c17.066667 0 34.133333 12.8 34.133333 34.133333s-12.8 34.133333-34.133333 34.133334z m140.8-524.8h-725.333334V149.333333c0-12.8 8.533333-21.333333 21.333334-21.333333h682.666666c12.8 0 21.333333 8.533333 21.333334 21.333333v98.133334z" p-id="17770"></path></svg>