<?xml version="1.0" standalone="no"?><!DOCTYPE svg PUBLIC "-//W3C//DTD SVG 1.1//EN" "http://www.w3.org/Graphics/SVG/1.1/DTD/svg11.dtd"><svg t="1736759126350" class="icon" viewBox="0 0 1077 1024" version="1.1" xmlns="http://www.w3.org/2000/svg" p-id="1640" xmlns:xlink="http://www.w3.org/1999/xlink" width="210.3515625" height="200"><path d="M354.142316 808.421053h-205.338948A41.714526 41.714526 0 0 1 107.789474 766.059789V257.940211C107.789474 234.549895 126.167579 215.578947 148.857263 215.578947H420.917895l-47.966316 84.668632H189.978947v423.504842H354.088421V808.421053z m179.685052 0l47.912421-84.668632h183.026527V300.193684h-164.217263V215.578947h205.338947c22.635789 0 41.013895 18.970947 41.013895 42.361264v508.119578a41.714526 41.714526 0 0 1-41.06779 42.361264H533.827368z m354.142316-423.450948H970.105263v254.05979h-82.135579V384.970105zM518.467368 469.638737h123.203369L436.277895 808.421053v-254.05979H313.128421L518.413474 215.578947v254.05979z" p-id="1641"></path></svg>