<?xml version="1.0" encoding="utf-8"?>
<!-- Generator: Adobe Illustrator 25.2.0, SVG Export Plug-In . SVG Version: 6.00 Build 0)  -->
<svg version="1.1" id="图层_1" xmlns="http://www.w3.org/2000/svg" xmlns:xlink="http://www.w3.org/1999/xlink" x="0px" y="0px"
	 viewBox="0 0 500 500" style="enable-background:new 0 0 500 500;" xml:space="preserve">
<style type="text/css">
	.st0{fill-rule:evenodd;clip-rule:evenodd;fill:url(#SVGID_1_);}
	.st1{fill-rule:evenodd;clip-rule:evenodd;fill:url(#SVGID_2_);}
	.st2{fill-rule:evenodd;clip-rule:evenodd;fill:url(#SVGID_3_);}
	.st3{fill-rule:evenodd;clip-rule:evenodd;fill:url(#SVGID_4_);}
	.st4{fill-rule:evenodd;clip-rule:evenodd;fill:url(#SVGID_5_);}
	.st5{fill-rule:evenodd;clip-rule:evenodd;fill:url(#SVGID_6_);}
</style>
<radialGradient id="SVGID_1_" cx="228.5161" cy="132.7125" r="233.4758" gradientUnits="userSpaceOnUse">
	<stop  offset="0" style="stop-color:#F5E929"/>
	<stop  offset="1" style="stop-color:#D71718"/>
</radialGradient>
<path class="st0" d="M190.24,213.74h81.84c0,0-0.6,33.58-38.47,33.58h-96.53C137.08,247.32,153.76,213.74,190.24,213.74
	L190.24,213.74z"/>
<radialGradient id="SVGID_2_" cx="228.5164" cy="132.7118" r="233.4749" gradientUnits="userSpaceOnUse">
	<stop  offset="0" style="stop-color:#F5E929"/>
	<stop  offset="1" style="stop-color:#D71718"/>
</radialGradient>
<path class="st1" d="M396.55,261.43c0,0-8.78,33.36-34.65,33.36l-63.32-0.97l-17.96,37.85c0,0-8.34,14.75-26.3,14.75h-16.73
	l31.48-62.87c0,0,8.21-22.45,32.72-22.45L396.55,261.43L396.55,261.43z"/>
<radialGradient id="SVGID_3_" cx="228.5166" cy="132.7136" r="233.4731" gradientUnits="userSpaceOnUse">
	<stop  offset="0" style="stop-color:#F5E929"/>
	<stop  offset="1" style="stop-color:#D71718"/>
</radialGradient>
<path class="st2" d="M257.65,364.43c43.7-8.49,183.02-61.26,175.82-132.15c-4.63-52.1-89.67-78.01-189.31-57.67
	c-0.89,0.18-1.77,0.37-2.66,0.55l30.19-27.97c46.23-6.46,88.54-4.12,121.44,5.36c79.45,22.9,92,93.05,29.76,145.41
	C376.74,336.78,300.7,360.72,257.65,364.43L257.65,364.43z"/>
<radialGradient id="SVGID_4_" cx="228.5164" cy="132.7133" r="233.4747" gradientUnits="userSpaceOnUse">
	<stop  offset="0" style="stop-color:#F5E929"/>
	<stop  offset="1" style="stop-color:#D71718"/>
</radialGradient>
<path class="st3" d="M242.36,177.31c-43.7,8.49-183.02,61.26-175.82,132.15c4.62,52.1,89.66,78.01,189.3,57.67
	c0.89-0.18,1.77-0.37,2.66-0.55l-30.19,27.97c-46.23,6.45-88.54,4.12-121.44-5.36c-79.45-22.9-92-93.05-29.76-145.41
	C123.26,204.96,199.3,181.02,242.36,177.31L242.36,177.31z"/>
<radialGradient id="SVGID_5_" cx="228.5163" cy="132.7131" r="233.4734" gradientUnits="userSpaceOnUse">
	<stop  offset="0" style="stop-color:#F5E929"/>
	<stop  offset="1" style="stop-color:#D71718"/>
</radialGradient>
<path class="st4" d="M134.15,261.31h88.66c0,0,26.58-0.7,24.48,25.18c0,0,2.1,50.37-66.45,59.46H96.89c0,0,8.4-30.78,31.48-30.08
	h62.26c0,0,13.87-2.46,15.8-12.09c0,0,3.21-8.98-8.34-8.98h-39.14C158.95,294.8,136.71,293.39,134.15,261.31L134.15,261.31z"/>
<radialGradient id="SVGID_6_" cx="228.5174" cy="132.7115" r="233.4743" gradientUnits="userSpaceOnUse">
	<stop  offset="0" style="stop-color:#F5E929"/>
	<stop  offset="1" style="stop-color:#D71718"/>
</radialGradient>
<path class="st5" d="M293.16,215.13h123.18c0,0-5.71,33.36-32.72,33.36H289.3c0,0-10.26-1.29-7.69-10.91L293.16,215.13
	L293.16,215.13z"/>
</svg>
