<?xml version="1.0" encoding="utf-8"?>
<!-- Generator: Adobe Illustrator 25.2.0, SVG Export Plug-In . SVG Version: 6.00 Build 0)  -->
<svg version="1.1" id="图层_1" xmlns="http://www.w3.org/2000/svg" xmlns:xlink="http://www.w3.org/1999/xlink" x="0px" y="0px"
	 viewBox="0 0 5000 5000" style="enable-background:new 0 0 5000 5000;" xml:space="preserve">
<style type="text/css">
	.st0{fill-rule:evenodd;clip-rule:evenodd;fill:url(#SVGID_1_);}
	.st1{fill-rule:evenodd;clip-rule:evenodd;fill:url(#SVGID_2_);}
	.st2{fill-rule:evenodd;clip-rule:evenodd;fill:url(#SVGID_3_);}
	.st3{fill-rule:evenodd;clip-rule:evenodd;fill:url(#SVGID_4_);}
	.st4{fill-rule:evenodd;clip-rule:evenodd;fill:url(#SVGID_5_);}
	.st5{fill-rule:evenodd;clip-rule:evenodd;fill:url(#SVGID_6_);}
</style>
<radialGradient id="SVGID_1_" cx="2254.6238" cy="1199.7174" r="2233.5352" gradientUnits="userSpaceOnUse">
	<stop  offset="0" style="stop-color:#F5E929"/>
	<stop  offset="1" style="stop-color:#D71718"/>
</radialGradient>
<path class="st0" d="M1888.46,1974.89h782.95c0,0-5.71,321.21-368.06,321.21h-923.48
	C1379.87,2296.1,1539.46,1974.89,1888.46,1974.89L1888.46,1974.89z"/>
<radialGradient id="SVGID_2_" cx="2254.626" cy="1199.7108" r="2233.5269" gradientUnits="userSpaceOnUse">
	<stop  offset="0" style="stop-color:#F5E929"/>
	<stop  offset="1" style="stop-color:#D71718"/>
</radialGradient>
<path class="st1" d="M3862.1,2431.13c0,0-84.03,319.17-331.43,319.17l-605.75-9.28l-171.85,362.11c0,0-79.78,141.15-251.64,141.15
	h-160.03l301.19-601.46c0,0,78.5-214.81,313.01-214.81L3862.1,2431.13L3862.1,2431.13z"/>
<radialGradient id="SVGID_3_" cx="2254.6282" cy="1199.7283" r="2233.5098" gradientUnits="userSpaceOnUse">
	<stop  offset="0" style="stop-color:#F5E929"/>
	<stop  offset="1" style="stop-color:#D71718"/>
</radialGradient>
<path class="st2" d="M2533.28,3416.45c418.07-81.19,1750.86-586.05,1681.96-1264.17c-44.25-498.4-857.78-746.25-1810.99-551.73
	c-8.49,1.72-16.96,3.5-25.42,5.28l288.81-267.59c442.27-61.76,847.06-39.45,1161.73,51.24
	c760.05,219.1,880.16,890.15,284.72,1391.06C3672.63,3151.93,2945.2,3380.94,2533.28,3416.45L2533.28,3416.45z"/>
<radialGradient id="SVGID_4_" cx="2254.6257" cy="1199.7255" r="2233.5251" gradientUnits="userSpaceOnUse">
	<stop  offset="0" style="stop-color:#F5E929"/>
	<stop  offset="1" style="stop-color:#D71718"/>
</radialGradient>
<path class="st3" d="M2387.02,1626.35c-418.09,81.21-1750.87,586.03-1681.96,1264.18c44.24,498.39,857.77,746.24,1810.97,551.72
	c8.49-1.72,16.97-3.51,25.42-5.27l-288.82,267.61c-442.26,61.73-847.02,39.44-1161.72-51.29
	c-760.04-219.09-880.15-890.14-284.72-1391.04C1247.67,1890.86,1975.09,1661.85,2387.02,1626.35L2387.02,1626.35z"/>
<radialGradient id="SVGID_5_" cx="2254.6257" cy="1199.7233" r="2233.5122" gradientUnits="userSpaceOnUse">
	<stop  offset="0" style="stop-color:#F5E929"/>
	<stop  offset="1" style="stop-color:#D71718"/>
</radialGradient>
<path class="st4" d="M1351.85,2429.92h848.17c0,0,254.29-6.68,234.21,240.9c0,0,20.08,481.82-635.7,568.8H995.47
	c0,0,80.34-294.43,301.18-287.77h595.59c0,0,132.71-23.55,151.14-115.62c0,0,30.67-85.92-79.81-85.92h-374.42
	C1589.16,2750.3,1376.39,2736.79,1351.85,2429.92L1351.85,2429.92z"/>
<radialGradient id="SVGID_6_" cx="2254.6355" cy="1199.7084" r="2233.5205" gradientUnits="userSpaceOnUse">
	<stop  offset="0" style="stop-color:#F5E929"/>
	<stop  offset="1" style="stop-color:#D71718"/>
</radialGradient>
<path class="st5" d="M2873.04,1988.12h1178.38c0,0-54.59,319.16-313.02,319.16h-902.27c0,0-98.13-12.3-73.57-104.35L2873.04,1988.12
	L2873.04,1988.12z"/>
</svg>
